<svg width="24" height="32" viewBox="0 0 24 32" fill="none" xmlns="http://www.w3.org/2000/svg">
<path d="M0 32C0 28.8174 1.26428 25.7652 3.51472 23.5147C5.76516 21.2643 8.8174 20 12 20C15.1826 20 18.2348 21.2643 20.4853 23.5147C22.7357 25.7652 24 28.8174 24 32H21C21 29.6131 20.0518 27.3239 18.364 25.636C16.6761 23.9482 14.3869 23 12 23C9.61305 23 7.32387 23.9482 5.63604 25.636C3.94821 27.3239 3 29.6131 3 32H0ZM12 18.5C7.0275 18.5 3 14.4725 3 9.5C3 4.5275 7.0275 0.5 12 0.5C16.9725 0.5 21 4.5275 21 9.5C21 14.4725 16.9725 18.5 12 18.5ZM12 15.5C15.315 15.5 18 12.815 18 9.5C18 6.185 15.315 3.5 12 3.5C8.685 3.5 6 6.185 6 9.5C6 12.815 8.685 15.5 12 15.5Z" fill="#222222"/>
</svg>
