<svg width="17" height="14" viewBox="0 0 17 14" fill="none" xmlns="http://www.w3.org/2000/svg">
<path d="M16.5002 13.0052C16.4989 13.2022 16.4201 13.3907 16.2809 13.5301C16.1416 13.6694 15.9532 13.7484 15.7562 13.75H2.24424C2.04685 13.7498 1.85762 13.6712 1.71811 13.5316C1.57861 13.392 1.50024 13.2026 1.50024 13.0052V12.25H15.0002V3.475L9.00024 8.875L1.50024 2.125V1C1.50024 0.801088 1.57926 0.610322 1.71991 0.46967C1.86057 0.329018 2.05133 0.25 2.25024 0.25H15.7502C15.9492 0.25 16.1399 0.329018 16.2806 0.46967C16.4212 0.610322 16.5002 0.801088 16.5002 1V13.0052ZM3.32574 1.75L9.00024 6.8575L14.6747 1.75H3.32574ZM0.000244141 9.25H6.00024V10.75H0.000244141V9.25ZM0.000244141 5.5H3.75024V7H0.000244141V5.5Z" fill="#7A4B9E"/>
</svg>
