<svg width="33" height="31" viewBox="0 0 33 31" fill="none" xmlns="http://www.w3.org/2000/svg">
<path d="M7.53996 18.0864C7.22358 16.3066 7.46181 14.4725 8.2223 12.8331C8.98278 11.1937 10.2287 9.82833 11.7908 8.92252C13.3529 8.01671 15.1555 7.61432 16.9539 7.76997C18.7523 7.92562 20.4592 8.63177 21.843 9.79255C23.2267 10.9533 24.2203 12.5125 24.6886 14.2583C25.1569 16.004 25.0774 17.8519 24.4608 19.5509C23.8443 21.2498 22.7205 22.7176 21.2421 23.7548C19.7638 24.7921 18.0025 25.3486 16.1974 25.3487C13.9578 25.3506 11.8026 24.493 10.1751 22.9522L9.25892 23.1218C11.2726 25.7337 16.6902 31.278 25.6864 30.0755C27.8058 28.5845 29.5454 26.6153 30.7646 24.3269C31.9839 22.0385 32.6487 19.495 32.7054 16.9018C32.762 14.3086 32.2089 11.7384 31.0907 9.39881C29.9726 7.05918 28.3207 5.01568 26.2684 3.43333C24.2161 1.85099 21.8211 0.774144 19.2766 0.289765C16.7321 -0.194614 14.1095 -0.0729528 11.6207 0.644925C9.1318 1.3628 6.8464 2.65677 4.949 4.42235C3.05161 6.18792 1.59541 8.37561 0.697998 10.8087L7.53996 18.0864Z" fill="#7A4B9E"/>
</svg>
