<svg width="14" height="18" viewBox="0 0 14 18" fill="none" xmlns="http://www.w3.org/2000/svg">
<path d="M7.00025 14.989L10.7127 11.2765C11.4469 10.5422 11.9469 9.60676 12.1494 8.58837C12.3519 7.56999 12.2479 6.51441 11.8506 5.55513C11.4532 4.59585 10.7803 3.77595 9.91693 3.19909C9.05359 2.62224 8.03858 2.31435 7.00025 2.31435C5.96192 2.31435 4.94691 2.62224 4.08356 3.19909C3.22021 3.77595 2.54731 4.59585 2.14993 5.55513C1.75256 6.51441 1.64856 7.56999 1.85109 8.58837C2.05361 9.60676 2.55357 10.5422 3.28775 11.2765L7.00025 14.989ZM7.00025 17.11L2.22725 12.337C1.28325 11.393 0.640384 10.1902 0.37994 8.88085C0.119497 7.57148 0.253174 6.21429 0.764068 4.98089C1.27496 3.7475 2.14013 2.6933 3.25016 1.9516C4.36019 1.2099 5.66523 0.814026 7.00025 0.814026C8.33527 0.814026 9.64031 1.2099 10.7503 1.9516C11.8604 2.6933 12.7255 3.7475 13.2364 4.98089C13.7473 6.21429 13.881 7.57148 13.6206 8.88085C13.3601 10.1902 12.7172 11.393 11.7732 12.337L7.00025 17.11ZM7.00025 9.06397C7.39807 9.06397 7.7796 8.90593 8.06091 8.62463C8.34221 8.34332 8.50025 7.96179 8.50025 7.56397C8.50025 7.16614 8.34221 6.78461 8.06091 6.50331C7.7796 6.222 7.39807 6.06397 7.00025 6.06397C6.60242 6.06397 6.22089 6.222 5.93959 6.50331C5.65828 6.78461 5.50025 7.16614 5.50025 7.56397C5.50025 7.96179 5.65828 8.34332 5.93959 8.62463C6.22089 8.90593 6.60242 9.06397 7.00025 9.06397ZM7.00025 10.564C6.2046 10.564 5.44153 10.2479 4.87893 9.68529C4.31632 9.12268 4.00025 8.35962 4.00025 7.56397C4.00025 6.76832 4.31632 6.00526 4.87893 5.44265C5.44153 4.88004 6.2046 4.56397 7.00025 4.56397C7.7959 4.56397 8.55896 4.88004 9.12157 5.44265C9.68418 6.00526 10.0002 6.76832 10.0002 7.56397C10.0002 8.35962 9.68418 9.12268 9.12157 9.68529C8.55896 10.2479 7.7959 10.564 7.00025 10.564Z" fill="#7A4B9E"/>
</svg>
