<svg width="20" height="24" viewBox="0 0 20 24" fill="none" xmlns="http://www.w3.org/2000/svg">
<path d="M15.2591 1.60079C16.702 2.24301 17.8085 3.16394 18.5785 4.36359C19.3485 5.56324 19.7335 6.98789 19.7335 8.63755C19.7335 10.2635 19.3485 11.6819 18.5785 12.8929C17.7745 14.1294 16.6181 15.0955 15.2591 15.6658C13.8162 16.3092 12.1227 16.6303 10.1785 16.6292H5.10628V23.1283H0.935059V0.637451H10.1751C12.1215 0.637451 13.8162 0.958562 15.2591 1.60079ZM14.1194 11.9465C15.061 11.1742 15.5318 10.0712 15.5318 8.63755C15.5318 7.20385 15.061 6.09805 14.1194 5.32015C13.18 4.55015 11.8009 4.16516 9.98203 4.16516H5.10628V13.0947H9.9888C11.802 13.0992 13.1789 12.7165 14.1194 11.9465Z" fill="#222222"/>
</svg>
