<svg width="15" height="18" viewBox="0 0 15 18" fill="none" xmlns="http://www.w3.org/2000/svg">
<path d="M7.74654 0.268311L14.2806 1.72033C14.4572 1.75958 14.6151 1.85787 14.7283 1.99896C14.8415 2.14006 14.9032 2.31554 14.9032 2.49643V10.438C14.9032 11.2234 14.7092 11.9967 14.3386 12.6892C13.9679 13.3817 13.432 13.9719 12.7785 14.4076L7.74654 17.7625L2.71459 14.4076C2.06116 13.972 1.52535 13.3819 1.1547 12.6895C0.784057 11.9972 0.590032 11.2241 0.589844 10.4388V2.49643C0.589875 2.31554 0.651581 2.14006 0.764777 1.99896C0.877973 1.85787 1.03589 1.75958 1.21248 1.72033L7.74654 0.268311ZM7.74654 1.89765L2.18022 3.13417V10.438C2.18023 10.9616 2.3095 11.4771 2.55655 11.9387C2.80361 12.4004 3.16081 12.7939 3.59645 13.0844L7.74654 15.8516L11.8966 13.0844C12.3322 12.794 12.6893 12.4006 12.9363 11.9391C13.1834 11.4776 13.3127 10.9622 13.3129 10.4388V3.13417L7.74654 1.89845V1.89765ZM7.74654 5.03945C8.0967 5.03929 8.43711 5.15469 8.71498 5.36775C8.99285 5.58081 9.19264 5.87962 9.28335 6.21782C9.37406 6.55601 9.35063 6.91469 9.21668 7.23821C9.08273 7.56173 8.84576 7.832 8.54253 8.00709L8.54173 11.401H6.95136V8.00709C6.64818 7.83204 6.41124 7.56184 6.27728 7.2384C6.14332 6.91496 6.11982 6.55635 6.21043 6.2182C6.30104 5.88004 6.50069 5.58124 6.77843 5.36811C7.05616 5.15499 7.39646 5.03946 7.74654 5.03945Z" fill="#222222"/>
</svg>
