<svg width="52" height="58" viewBox="0 0 52 58" fill="none" xmlns="http://www.w3.org/2000/svg">
<path d="M31.0697 0.206787C31.7094 0.334439 32.3597 0.423043 32.9874 0.595748C36.3724 1.53286 38.2196 3.91469 39.0411 7.20359C39.7485 10.036 39.6223 12.8968 39.2168 15.7638C39.2085 15.8382 39.195 15.912 39.1763 15.9845C38.9795 16.6708 39.0937 17.1859 39.6418 17.7626C40.6525 18.8289 40.7937 20.1805 40.1795 21.5321C39.5652 22.8837 38.4569 23.564 36.9822 23.6346C36.6653 23.6496 36.3484 23.6346 36.003 23.6346C35.9174 24.1062 35.8528 24.5492 35.7537 24.9862C35.3837 26.5431 34.6504 27.9902 33.6137 29.2092C33.4455 29.4181 33.3468 29.6743 33.3313 29.9421C33.3013 31.124 33.3313 32.3074 33.3103 33.4893C33.2962 33.6254 33.3262 33.7624 33.396 33.88C33.4658 33.9977 33.5716 34.0897 33.6978 34.1426C34.5838 34.6276 35.4999 35.0797 36.3214 35.6594C38.4044 37.1251 40.8012 37.6552 43.2206 38.1689C44.6067 38.4692 46.0199 38.702 47.2634 39.4619C49.8074 41.0147 51.2176 43.2824 51.2837 46.2604C51.3632 49.7686 51.2972 53.2798 51.3152 56.7895C51.3152 57.282 51.0794 57.5869 50.7445 57.8707H1.49954C1.04901 57.5523 0.922856 57.1198 0.927362 56.5657C0.948387 53.2828 0.927363 49.9984 0.937875 46.7155C0.937875 42.5736 3.45186 39.4334 7.48414 38.5158C9.19768 38.1253 10.9142 37.7438 12.6232 37.3354C13.0031 37.2411 13.3684 37.0956 13.709 36.9028C15.3084 36.0018 16.8928 35.0797 18.4922 34.1816C18.7926 34.0089 18.9428 33.8272 18.9428 33.4442C18.9112 32.2638 18.9428 31.0804 18.9232 29.8985C18.9302 29.6989 18.8722 29.5023 18.758 29.3384C17.3928 27.7998 16.5349 25.8779 16.3011 23.8343C16.2862 23.7814 16.2639 23.7309 16.235 23.6842C15.6749 23.6391 15.1072 23.6526 14.5666 23.534C13.9907 23.4127 13.4537 23.151 13.0033 22.7723C12.5528 22.3936 12.2029 21.9095 11.9845 21.363C11.7661 20.8166 11.686 20.2246 11.7513 19.6398C11.8166 19.0549 12.0253 18.4952 12.3589 18.0104C12.5262 17.7513 12.6182 17.4508 12.6248 17.1424C12.6443 14.3836 12.5962 11.6248 12.6578 8.86757C12.668 7.83954 12.8264 6.81835 13.1278 5.83547C14.0289 3.07369 16.9589 2.33932 18.9623 2.52404C19.4786 2.58846 20.0028 2.52609 20.4896 2.34232C23.0576 1.33463 25.6843 0.540181 28.449 0.284878C28.5405 0.267907 28.6301 0.241745 28.7164 0.206787H31.0697ZM43.2101 56.034H49.4905C49.4905 52.655 49.5701 49.3151 49.465 45.9721C49.3809 43.3275 47.4391 41.0763 44.877 40.4155C43.1034 39.965 41.3058 39.5925 39.5277 39.1465C39.1267 39.0459 38.927 39.1615 38.6777 39.4469C36.8876 41.5178 35.0824 43.5753 33.2818 45.6357C32.7516 46.2364 32.4303 46.2965 31.7199 45.8955C31.2859 45.6507 30.8549 45.4014 30.3803 45.1311C29.9298 46.2605 29.4793 47.3282 29.0768 48.414C28.9845 48.6854 28.9888 48.9804 29.0888 49.249C30.0094 51.383 30.9705 53.4975 31.8941 55.6286C32.0443 55.98 32.235 56.0791 32.6045 56.0791C35.3572 56.0626 38.1115 56.0701 40.8643 56.0701H41.4079V51.9822C41.4079 51.8501 41.4079 51.7194 41.4079 51.5873C41.444 51.0481 41.7954 50.6862 42.2835 50.6712C42.7941 50.6592 43.192 51.0361 43.198 51.6038C43.2206 53.0695 43.2101 54.5278 43.2101 56.034V56.034ZM21.8847 45.1882C21.8337 45.1943 21.7834 45.2054 21.7346 45.2212C21.3581 45.4315 20.9827 45.6422 20.6082 45.8535C19.7852 46.319 19.5254 46.274 18.9202 45.5816C17.1181 43.5182 15.3159 41.4623 13.5243 39.3913C13.293 39.124 13.0948 39.0729 12.7584 39.1555C11.123 39.5535 9.48001 39.9214 7.84006 40.2984C4.68632 41.0237 2.75203 43.4371 2.74602 46.6749C2.74602 49.6214 2.74602 52.5674 2.74602 55.5129V56.0446H9.03248V55.4724C9.03248 54.2529 9.03248 53.0335 9.03248 51.814C9.03248 51.0947 9.35536 50.6862 9.91403 50.6757C10.4727 50.6652 10.8256 51.0872 10.8286 51.8366C10.8286 52.4943 10.8286 53.1506 10.8286 53.8069V56.016C10.8837 56.0399 10.941 56.058 10.9998 56.0701C13.9403 56.0701 16.8808 56.0806 19.8213 56.0626C19.9197 56.0432 20.0124 56.0016 20.0923 55.9409C20.1722 55.8803 20.2372 55.8022 20.2823 55.7127C21.2645 53.5471 22.2347 51.371 23.1868 49.1949C23.2514 49.0448 23.337 48.8495 23.2799 48.7204C22.8294 47.531 22.3503 46.3566 21.8817 45.1882H21.8847ZM18.0582 13.4555C18.0437 13.5079 18.0351 13.5618 18.0327 13.6162C18.0327 16.8045 17.9696 19.9958 18.0552 23.1826C18.1633 27.2464 21.6445 30.6704 25.7008 30.8416C30.4029 31.0339 34.2009 27.4056 34.2174 22.6885C34.2294 19.6489 34.2174 16.6108 34.2174 13.5711C34.2174 13.409 34.2024 13.2468 34.1919 13.0485C32.636 13.3789 31.1132 13.6748 29.6039 14.0277C27.0073 14.6374 24.3942 14.9062 21.7571 14.3956C20.5151 14.1493 19.3047 13.7754 18.0552 13.4555H18.0582ZM37.293 16.414C37.7991 13.3864 38.0439 10.4069 37.2645 7.43937C36.8996 6.0337 36.2718 4.7677 35.186 3.77352C33.7143 2.42192 31.9197 2.01193 29.9944 2.00742C27.1981 2.00742 24.5474 2.73278 21.9658 3.71495C20.7644 4.16548 19.5975 4.62503 18.288 4.30065C18.2695 4.29915 18.2509 4.29915 18.2324 4.30065C16.1735 4.29014 14.8279 5.4405 14.5365 7.48293C14.4725 7.93065 14.4393 8.38225 14.4374 8.83453C14.4269 11.2179 14.4374 13.6027 14.4374 15.986V16.4996L16.2395 16.4005V15.8253C16.2395 14.6044 16.2395 13.3849 16.2395 12.164C16.2395 11.1518 16.8403 10.7929 17.7593 11.2269L17.863 11.2719C20.8951 12.7241 24.0774 13.2017 27.3813 12.6055C29.8472 12.155 32.2921 11.5933 34.74 11.0842C35.557 10.913 36.0135 11.2734 36.018 12.0994C36.018 13.3564 36.018 14.6149 36.018 15.8719V16.4155L37.293 16.414ZM31.5202 31.0729C27.9009 33.1829 24.3311 33.1499 20.7299 31.0729C20.7299 32.0626 20.7149 32.9802 20.7419 33.8963C20.7743 34.0948 20.8684 34.2782 21.0107 34.4204C22.5696 36.2225 24.1349 38.0167 25.7068 39.8028C25.8374 39.953 25.9771 40.0926 26.1378 40.2623C27.9099 38.2379 29.6385 36.2646 31.361 34.2852C31.4468 34.1892 31.4994 34.0681 31.5112 33.9398C31.5232 33.0147 31.5172 32.0821 31.5172 31.0729H31.5202ZM37.3156 38.2815C35.7898 37.4074 34.3225 36.5559 32.8372 35.7375C32.7306 35.6789 32.4318 35.8216 32.3146 35.9522C30.7993 37.6612 29.3005 39.3838 27.8003 41.1033C27.7192 41.1949 27.6501 41.2986 27.554 41.4292L32.232 44.1024L37.3156 38.2815ZM19.6351 35.5978L14.9345 38.292L20.021 44.1114L24.7201 41.4187L19.6351 35.5978ZM22.1445 56.0446H30.077C30.0536 55.9452 30.024 55.8474 29.9884 55.7517C29.1549 53.867 28.3274 51.9792 27.4684 50.1065C27.4088 50.0168 27.3304 49.9412 27.2385 49.8849C27.1467 49.8286 27.0437 49.793 26.9367 49.7806C26.4156 49.7371 25.8855 49.7911 25.3644 49.7566C25.0009 49.7326 24.8448 49.8797 24.7066 50.1981C23.9692 51.8996 23.2048 53.5907 22.4539 55.2862C22.3533 55.5204 22.2617 55.7607 22.1445 56.0446V56.0446ZM23.4451 44.23C23.9197 45.4225 24.3597 46.5533 24.8267 47.6736C24.8671 47.7465 24.9235 47.8092 24.9917 47.8571C25.0598 47.905 25.138 47.9367 25.2202 47.95C25.8209 47.98 26.4216 47.9755 27.0133 47.95C27.0882 47.9442 27.1608 47.9215 27.2256 47.8835C27.2904 47.8455 27.3457 47.7933 27.3873 47.7307C27.8678 46.5788 28.3244 45.418 28.8005 44.2285C27.9519 43.739 27.1485 43.2659 26.333 42.8199C26.2601 42.7931 26.1825 42.7818 26.1049 42.7864C26.0274 42.7911 25.9517 42.8117 25.8825 42.8469C25.0745 43.2869 24.2861 43.748 23.4451 44.23ZM36.039 21.8009C37.0182 21.9045 37.9058 21.8625 38.4554 20.9449C38.646 20.6511 38.7404 20.3052 38.7253 19.9553C38.7102 19.6054 38.5865 19.2689 38.3713 18.9926C37.7886 18.1681 36.9401 18.1666 36.039 18.2672V21.8009ZM16.2155 18.2582C15.2018 18.1546 14.3067 18.2192 13.7691 19.1818C13.5907 19.4722 13.5065 19.8106 13.528 20.1507C13.5495 20.4908 13.6757 20.816 13.8893 21.0816C14.4795 21.891 15.322 21.9 16.2155 21.7934V18.2582Z" fill="#7A4B9E"/>
</svg>
