<svg width="18" height="19" viewBox="0 0 18 19" fill="none" xmlns="http://www.w3.org/2000/svg">
<path d="M17.4253 0.969727V18.1283H13.6081V15.9405C12.9603 16.7177 12.1372 17.3293 11.2066 17.7247C10.2238 18.146 9.16457 18.3591 8.09554 18.3505C5.80811 18.3505 4.00616 17.7134 2.6897 16.4391C1.37324 15.1648 0.712188 13.2749 0.706543 10.7693V0.969727H4.71689V10.2232C4.71689 11.7654 5.06464 12.9165 5.76013 13.6763C6.45561 14.4361 7.44464 14.816 8.72723 14.816C10.16 14.816 11.2986 14.3716 12.1431 13.4829C12.9877 12.5942 13.4094 11.316 13.4082 9.64824V0.969727H17.4253Z" fill="#222222"/>
</svg>
