<svg width="16" height="17" viewBox="0 0 16 17" fill="none" xmlns="http://www.w3.org/2000/svg">
<path d="M8.11872 16.1161C3.92182 16.1161 0.519775 12.7141 0.519775 8.51719C0.519775 4.32029 3.92182 0.918243 8.11872 0.918243C12.3156 0.918243 15.7177 4.32029 15.7177 8.51719C15.7177 12.7141 12.3156 16.1161 8.11872 16.1161ZM8.11872 14.5963C9.73101 14.5963 11.2773 13.9559 12.4173 12.8158C13.5574 11.6757 14.1979 10.1295 14.1979 8.51719C14.1979 6.9049 13.5574 5.35864 12.4173 4.21858C11.2773 3.07851 9.73101 2.43803 8.11872 2.43803C6.50643 2.43803 4.96017 3.07851 3.82011 4.21858C2.68005 5.35864 2.03956 6.9049 2.03956 8.51719C2.03956 10.1295 2.68005 11.6757 3.82011 12.8158C4.96017 13.9559 6.50643 14.5963 8.11872 14.5963ZM7.35883 10.7969H8.87861V12.3167H7.35883V10.7969ZM7.35883 4.71772H8.87861V9.27708H7.35883V4.71772Z" fill="#222222"/>
</svg>
