<svg width="25" height="24" viewBox="0 0 25 24" fill="none" xmlns="http://www.w3.org/2000/svg">
<path d="M5.75324 14.2096C5.51326 12.8615 5.69396 11.4722 6.27084 10.2304C6.84771 8.98865 7.79278 7.95448 8.97773 7.26837C10.1627 6.58226 11.5301 6.27746 12.8942 6.39536C14.2584 6.51326 15.5532 7.04814 16.6029 7.92737C17.6526 8.80661 18.4062 9.98759 18.7615 11.3099C19.1167 12.6323 19.0564 14.032 18.5887 15.3189C18.121 16.6058 17.2685 17.7175 16.1471 18.5032C15.0257 19.2889 13.6897 19.7104 12.3204 19.7105C10.6215 19.7119 8.98672 19.0623 7.75217 17.8952L7.05717 18.0237C8.58463 20.0021 12.6942 24.2016 19.5183 23.2908C21.126 22.1615 22.4456 20.6699 23.3705 18.9365C24.2954 17.2031 24.7997 15.2765 24.8426 13.3123C24.8856 11.3481 24.466 9.4013 23.6178 7.62914C22.7696 5.85697 21.5166 4.30911 19.9598 3.11055C18.4031 1.912 16.5863 1.09634 14.6561 0.729442C12.726 0.362547 10.7366 0.454699 8.8487 0.99846C6.96075 1.54222 5.22714 2.52234 3.78786 3.85969C2.34858 5.19703 1.24397 6.85411 0.563232 8.6971L5.75324 14.2096Z" fill="white"/>
</svg>
