<svg width="14" height="14" viewBox="0 0 14 14" fill="none" xmlns="http://www.w3.org/2000/svg">
<path d="M5.02474 6.0115C5.7285 7.24786 6.75239 8.27175 7.98874 8.9755L8.65174 8.047C8.75836 7.8977 8.91601 7.79266 9.09485 7.75175C9.27369 7.71084 9.46132 7.7369 9.62224 7.825C10.683 8.40469 11.8544 8.75333 13.0595 8.848C13.2476 8.8629 13.4231 8.94815 13.5512 9.08674C13.6792 9.22533 13.7503 9.40708 13.7502 9.59575V12.9423C13.7503 13.1279 13.6814 13.3071 13.557 13.4449C13.4326 13.5828 13.2615 13.6696 13.0767 13.6885C12.6792 13.7297 12.2787 13.75 11.8752 13.75C5.45524 13.75 0.250244 8.545 0.250244 2.125C0.250244 1.7215 0.270494 1.321 0.311744 0.9235C0.330685 0.738773 0.417482 0.567641 0.555336 0.443225C0.693191 0.31881 0.872299 0.24996 1.05799 0.25H4.40449C4.59317 0.249976 4.77492 0.321064 4.9135 0.449088C5.05209 0.577112 5.13734 0.752668 5.15224 0.94075C5.24691 2.14584 5.59555 3.31726 6.17524 4.378C6.26334 4.53892 6.2894 4.72656 6.24849 4.9054C6.20758 5.08424 6.10254 5.24188 5.95324 5.3485L5.02474 6.0115V6.0115ZM3.13324 5.51875L4.55824 4.501C4.15383 3.62807 3.87676 2.70163 3.73549 1.75H1.75774C1.75324 1.8745 1.75099 1.99975 1.75099 2.125C1.75024 7.717 6.28324 12.25 11.8752 12.25C12.0005 12.25 12.1257 12.2477 12.2502 12.2425V10.2648C11.2986 10.1235 10.3722 9.84641 9.49924 9.442L8.48149 10.867C8.07174 10.7078 7.67375 10.5198 7.29049 10.3045L7.24699 10.2797C5.77593 9.44254 4.5577 8.22432 3.72049 6.75325L3.69574 6.70975C3.48042 6.32649 3.29246 5.9285 3.13324 5.51875V5.51875Z" fill="#7A4B9E"/>
</svg>
