<svg width="69" height="69" viewBox="0 0 69 69" fill="none" xmlns="http://www.w3.org/2000/svg">
<path d="M59.3062 22.0001H62.625C64.2826 22.0001 65.8723 22.6585 67.0444 23.8306C68.2165 25.0027 68.875 26.5924 68.875 28.2501V40.75C68.875 42.4077 68.2165 43.9974 67.0444 45.1695C65.8723 46.3416 64.2826 47 62.625 47H59.3062C58.5444 53.0416 55.604 58.5975 51.0367 62.625C46.4695 66.6526 40.5894 68.8749 34.5 68.8751V62.6251C39.4728 62.6251 44.2419 60.6496 47.7583 57.1333C51.2746 53.617 53.25 48.8479 53.25 43.875V25.1251C53.25 20.1522 51.2746 15.3831 47.7583 11.8668C44.2419 8.3505 39.4728 6.37505 34.5 6.37505C29.5272 6.37505 24.7581 8.3505 21.2417 11.8668C17.7254 15.3831 15.75 20.1522 15.75 25.1251V47H6.375C4.7174 47 3.12769 46.3416 1.95558 45.1695C0.78348 43.9974 0.125 42.4077 0.125 40.75V28.2501C0.125 26.5924 0.78348 25.0027 1.95558 23.8306C3.12769 22.6585 4.7174 22.0001 6.375 22.0001H9.69375C10.4563 15.9591 13.3971 10.404 17.9643 6.37717C22.5315 2.3503 28.4111 0.128418 34.5 0.128418C40.5889 0.128418 46.4685 2.3503 51.0357 6.37717C55.6029 10.404 58.5437 15.9591 59.3062 22.0001ZM6.375 28.2501V40.75H9.5V28.2501H6.375ZM59.5 28.2501V40.75H62.625V28.2501H59.5ZM21.25 46.3282L24.5625 41.0282C27.5409 42.8939 30.9855 43.8807 34.5 43.875C38.0145 43.8807 41.4591 42.8939 44.4375 41.0282L47.75 46.3282C43.7789 48.8161 39.1861 50.1323 34.5 50.125C29.8139 50.1323 25.2211 48.8161 21.25 46.3282Z" fill="#7A4B9E"/>
</svg>
