<svg width="32" height="32" viewBox="0 0 32 32" fill="none" xmlns="http://www.w3.org/2000/svg">
<path d="M3 21V3H0V0H4.5C4.89782 0 5.27936 0.158035 5.56066 0.43934C5.84196 0.720644 6 1.10218 6 1.5V19.5H24.657L27.657 7.5H9V4.5H29.58C29.808 4.50001 30.033 4.55199 30.2379 4.652C30.4428 4.75202 30.6222 4.89743 30.7625 5.07718C30.9028 5.25693 31.0002 5.4663 31.0474 5.68937C31.0947 5.91243 31.0904 6.14333 31.035 6.3645L27.285 21.3645C27.2037 21.6889 27.0164 21.9768 26.7528 22.1825C26.4892 22.3882 26.1644 22.5 25.83 22.5H4.5C4.10217 22.5 3.72064 22.342 3.43934 22.0607C3.15804 21.7794 3 21.3978 3 21ZM6 31.5C5.20435 31.5 4.44129 31.1839 3.87868 30.6213C3.31607 30.0587 3 29.2956 3 28.5C3 27.7044 3.31607 26.9413 3.87868 26.3787C4.44129 25.8161 5.20435 25.5 6 25.5C6.79565 25.5 7.55871 25.8161 8.12132 26.3787C8.68393 26.9413 9 27.7044 9 28.5C9 29.2956 8.68393 30.0587 8.12132 30.6213C7.55871 31.1839 6.79565 31.5 6 31.5ZM24 31.5C23.2043 31.5 22.4413 31.1839 21.8787 30.6213C21.3161 30.0587 21 29.2956 21 28.5C21 27.7044 21.3161 26.9413 21.8787 26.3787C22.4413 25.8161 23.2043 25.5 24 25.5C24.7956 25.5 25.5587 25.8161 26.1213 26.3787C26.6839 26.9413 27 27.7044 27 28.5C27 29.2956 26.6839 30.0587 26.1213 30.6213C25.5587 31.1839 24.7956 31.5 24 31.5Z" fill="#222222"/>
</svg>
