<svg width="14" height="16" viewBox="0 0 14 16" fill="none" xmlns="http://www.w3.org/2000/svg">
<path d="M10.9182 11.2006H12.438V2.08183H4.83903V3.60162H10.9182V11.2006ZM10.9182 12.7204V15C10.9182 15.4195 10.5762 15.7599 10.153 15.7599H1.04488C0.944667 15.7605 0.845326 15.7413 0.752562 15.7034C0.659798 15.6655 0.575439 15.6096 0.504332 15.539C0.433226 15.4684 0.376772 15.3844 0.338216 15.292C0.29966 15.1995 0.279761 15.1002 0.279663 15L0.281943 4.36151C0.281943 3.94205 0.623895 3.60162 1.04716 3.60162H3.31924V1.32194C3.31924 1.1204 3.3993 0.927118 3.54181 0.78461C3.68432 0.642102 3.8776 0.562042 4.07914 0.562042H13.1979C13.3994 0.562042 13.5927 0.642102 13.7352 0.78461C13.8777 0.927118 13.9578 1.1204 13.9578 1.32194V11.9605C13.9578 12.162 13.8777 12.3553 13.7352 12.4978C13.5927 12.6403 13.3994 12.7204 13.1979 12.7204H10.9182ZM1.80173 5.12141L1.79945 14.2401H9.3984V5.12141H1.80173ZM3.31924 11.2006H6.73877C6.83953 11.2006 6.93618 11.1605 7.00743 11.0893C7.07868 11.018 7.11871 10.9214 7.11871 10.8206C7.11871 10.7198 7.07868 10.6232 7.00743 10.552C6.93618 10.4807 6.83953 10.4407 6.73877 10.4407H4.45908C3.95524 10.4407 3.47204 10.2405 3.11577 9.88425C2.7595 9.52798 2.55935 9.04478 2.55935 8.54093C2.55935 8.03709 2.7595 7.55389 3.11577 7.19762C3.47204 6.84135 3.95524 6.6412 4.45908 6.6412H4.83903V5.8813H6.35882V6.6412H7.87861V8.16099H4.45908C4.35831 8.16099 4.26167 8.20102 4.19042 8.27227C4.11917 8.34352 4.07914 8.44017 4.07914 8.54093C4.07914 8.6417 4.11917 8.73834 4.19042 8.8096C4.26167 8.88085 4.35831 8.92088 4.45908 8.92088H6.73877C7.24261 8.92088 7.72581 9.12103 8.08208 9.4773C8.43835 9.83357 8.6385 10.3168 8.6385 10.8206C8.6385 11.3245 8.43835 11.8077 8.08208 12.1639C7.72581 12.5202 7.24261 12.7204 6.73877 12.7204H6.35882V13.4802H4.83903V12.7204H3.31924V11.2006Z" fill="#222222"/>
</svg>
