<svg width="17" height="15" viewBox="0 0 17 15" fill="none" xmlns="http://www.w3.org/2000/svg">
<path d="M1.59011 0.255615H15.9035C16.1144 0.255615 16.3167 0.339394 16.4658 0.488521C16.6149 0.637648 16.6987 0.839907 16.6987 1.0508V13.7738C16.6987 13.9847 16.6149 14.187 16.4658 14.3361C16.3167 14.4852 16.1144 14.569 15.9035 14.569H1.59011C1.37921 14.569 1.17695 14.4852 1.02783 14.3361C0.8787 14.187 0.794922 13.9847 0.794922 13.7738V1.0508C0.794922 0.839907 0.8787 0.637648 1.02783 0.488521C1.17695 0.339394 1.37921 0.255615 1.59011 0.255615ZM15.1083 3.62563L8.80407 9.27147L2.3853 3.60813V12.9786H15.1083V3.62563ZM2.79164 1.84599L8.79532 7.14354L14.7123 1.84599H2.79164Z" fill="#222222"/>
</svg>
