<svg width="30" height="29" viewBox="0 0 30 29" fill="none" xmlns="http://www.w3.org/2000/svg">
<path d="M15.0015 2.79347C18.525 -0.37003 23.97 -0.26503 27.3645 3.13547C30.7575 6.53747 30.8745 11.9555 27.7185 15.4895L14.9985 28.2275L2.28151 15.4895C-0.874491 11.9555 -0.755991 6.52847 2.63551 3.13547C6.03301 -0.26053 11.4675 -0.37453 15.0015 2.79347ZM25.2405 5.25497C22.9905 3.00197 19.3605 2.91047 17.0055 5.02547L15.003 6.82247L12.999 5.02697C10.6365 2.90897 7.01401 3.00197 4.75801 5.25797C2.52301 7.49297 2.41051 11.0705 4.47001 13.4345L15 23.981L25.53 13.436C27.591 11.0705 27.4785 7.49747 25.2405 5.25497Z" fill="#222222"/>
</svg>
