<svg width="14" height="18" viewBox="0 0 14 18" fill="none" xmlns="http://www.w3.org/2000/svg">
<path d="M7.11872 15.238L10.8802 11.4766C11.6241 10.7326 12.1306 9.78483 12.3358 8.75301C12.541 7.72119 12.4356 6.65169 12.033 5.67975C11.6304 4.70782 10.9486 3.8771 10.0739 3.29263C9.19915 2.70817 8.17074 2.39621 7.11872 2.39621C6.06669 2.39621 5.03829 2.70817 4.16355 3.29263C3.28881 3.8771 2.60703 4.70782 2.20441 5.67975C1.80179 6.65169 1.69642 7.72119 1.90162 8.75301C2.10682 9.78483 2.61338 10.7326 3.35724 11.4766L7.11872 15.238ZM7.11872 17.387L2.28275 12.5511C1.3263 11.5946 0.67495 10.376 0.41107 9.04935C0.147191 7.72271 0.282632 6.34761 0.800266 5.09794C1.3179 3.84827 2.19448 2.78016 3.31915 2.02868C4.44383 1.2772 5.76608 0.876099 7.11872 0.876099C8.47135 0.876099 9.7936 1.2772 10.9183 2.02868C12.043 2.78016 12.9195 3.84827 13.4372 5.09794C13.9548 6.34761 14.0902 7.72271 13.8264 9.04935C13.5625 10.376 12.9111 11.5946 11.9547 12.5511L7.11872 17.387ZM7.11872 9.23488C7.52179 9.23488 7.90835 9.07476 8.19337 8.78974C8.47838 8.50473 8.6385 8.11816 8.6385 7.71509C8.6385 7.31202 8.47838 6.92545 8.19337 6.64044C7.90835 6.35542 7.52179 6.1953 7.11872 6.1953C6.71564 6.1953 6.32908 6.35542 6.04406 6.64044C5.75905 6.92545 5.59893 7.31202 5.59893 7.71509C5.59893 8.11816 5.75905 8.50473 6.04406 8.78974C6.32908 9.07476 6.71564 9.23488 7.11872 9.23488ZM7.11872 10.7547C6.31257 10.7547 5.53944 10.4344 4.96941 9.8644C4.39938 9.29436 4.07914 8.52124 4.07914 7.71509C4.07914 6.90894 4.39938 6.13581 4.96941 5.56578C5.53944 4.99575 6.31257 4.67551 7.11872 4.67551C7.92486 4.67551 8.69799 4.99575 9.26802 5.56578C9.83805 6.13581 10.1583 6.90894 10.1583 7.71509C10.1583 8.52124 9.83805 9.29436 9.26802 9.8644C8.69799 10.4344 7.92486 10.7547 7.11872 10.7547Z" fill="#222222"/>
</svg>
