<svg width="16" height="15" viewBox="0 0 16 15" fill="none" xmlns="http://www.w3.org/2000/svg">
<path d="M2.03956 2.19795V12.8365H14.1979V2.19795H2.03956ZM1.27967 0.678162H14.9578C15.1593 0.678162 15.3526 0.758222 15.4951 0.90073C15.6376 1.04324 15.7177 1.23652 15.7177 1.43806V13.5964C15.7177 13.7979 15.6376 13.9912 15.4951 14.1337C15.3526 14.2762 15.1593 14.3563 14.9578 14.3563H1.27967C1.07813 14.3563 0.884851 14.2762 0.742343 14.1337C0.599835 13.9912 0.519775 13.7979 0.519775 13.5964V1.43806C0.519775 1.23652 0.599835 1.04324 0.742343 0.90073C0.884851 0.758222 1.07813 0.678162 1.27967 0.678162ZM8.11872 5.23753V2.95785L11.9182 6.75732H5.07914V5.23753H8.11872ZM4.31925 8.27711H11.1583V9.7969H8.11872V12.0766L4.31925 8.27711Z" fill="#222222"/>
</svg>
