<svg width="18" height="16" viewBox="0 0 18 16" fill="none" xmlns="http://www.w3.org/2000/svg">
<path d="M9.20667 0.858643C13.4943 0.858643 17.0615 3.94398 17.8098 8.01535C17.0623 12.0867 13.4943 15.172 9.20667 15.172C4.91901 15.172 1.35179 12.0867 0.603516 8.01535C1.35099 3.94398 4.91901 0.858643 9.20667 0.858643ZM9.20667 13.5817C10.8284 13.5813 12.402 13.0305 13.6699 12.0193C14.9379 11.0081 15.8249 9.5964 16.186 8.01535C15.8236 6.43555 14.936 5.02544 13.6682 4.01556C12.4004 3.00569 10.8275 2.4558 9.20667 2.4558C7.58583 2.4558 6.01294 3.00569 4.74516 4.01556C3.47738 5.02544 2.58971 6.43555 2.22729 8.01535C2.58838 9.5964 3.47548 11.0081 4.74338 12.0193C6.01129 13.0305 7.5849 13.5813 9.20667 13.5817ZM9.20667 11.5937C8.25763 11.5937 7.34746 11.2167 6.67639 10.5456C6.00532 9.87455 5.62831 8.96438 5.62831 8.01535C5.62831 7.06631 6.00532 6.15614 6.67639 5.48507C7.34746 4.814 8.25763 4.43699 9.20667 4.43699C10.1557 4.43699 11.0659 4.814 11.7369 5.48507C12.408 6.15614 12.785 7.06631 12.785 8.01535C12.785 8.96438 12.408 9.87455 11.7369 10.5456C11.0659 11.2167 10.1557 11.5937 9.20667 11.5937ZM9.20667 10.0033C9.73391 10.0033 10.2396 9.79387 10.6124 9.42105C10.9852 9.04824 11.1946 8.54259 11.1946 8.01535C11.1946 7.4881 10.9852 6.98245 10.6124 6.60964C10.2396 6.23682 9.73391 6.02737 9.20667 6.02737C8.67942 6.02737 8.17377 6.23682 7.80096 6.60964C7.42814 6.98245 7.21869 7.4881 7.21869 8.01535C7.21869 8.54259 7.42814 9.04824 7.80096 9.42105C8.17377 9.79387 8.67942 10.0033 9.20667 10.0033Z" fill="#BDBDBD"/>
</svg>
