<svg width="16" height="17" viewBox="0 0 16 17" fill="none" xmlns="http://www.w3.org/2000/svg">
<path d="M14.9579 8.20836V15.3164C14.9579 15.518 14.8778 15.7112 14.7353 15.8537C14.5928 15.9962 14.3995 16.0763 14.198 16.0763H2.03969C1.83815 16.0763 1.64487 15.9962 1.50236 15.8537C1.35986 15.7112 1.2798 15.518 1.2798 15.3164V8.20836C0.789144 7.65361 0.518801 6.93828 0.519901 6.19768V1.63831C0.519901 1.43678 0.599961 1.24349 0.742469 1.10099C0.884977 0.958478 1.07826 0.878418 1.2798 0.878418H14.9579C15.1594 0.878418 15.3527 0.958478 15.4952 1.10099C15.6377 1.24349 15.7178 1.43678 15.7178 1.63831V6.19768C15.7178 6.96821 15.4305 7.67187 14.9579 8.20836ZM13.4381 9.14151C12.8947 9.28112 12.3232 9.26786 11.7868 9.10319C11.2505 8.93853 10.77 8.62885 10.3985 8.20836C10.1136 8.53214 9.76284 8.7914 9.36972 8.96883C8.9766 9.14625 8.55015 9.23777 8.11885 9.23726C7.68754 9.23777 7.26109 9.14625 6.86797 8.96883C6.47485 8.7914 6.1241 8.53214 5.83916 8.20836C5.46857 8.63005 4.98818 8.94058 4.45151 9.10534C3.91483 9.27009 3.34296 9.28262 2.79958 9.14151V14.5565H13.4381V9.14151ZM9.63863 6.19768C9.63863 5.99614 9.7187 5.80286 9.8612 5.66035C10.0037 5.51785 10.197 5.43778 10.3985 5.43779C10.6001 5.43778 10.7933 5.51785 10.9359 5.66035C11.0784 5.80286 11.1584 5.99614 11.1584 6.19768C11.1584 6.60075 11.3185 6.98732 11.6036 7.27233C11.8886 7.55735 12.2751 7.71747 12.6782 7.71747C13.0813 7.71747 13.4678 7.55735 13.7529 7.27233C14.0379 6.98732 14.198 6.60075 14.198 6.19768V2.39821H2.03969V6.19768C2.03969 6.60075 2.19981 6.98732 2.48483 7.27233C2.76984 7.55735 3.15641 7.71747 3.55948 7.71747C3.96255 7.71747 4.34912 7.55735 4.63413 7.27233C4.91915 6.98732 5.07927 6.60075 5.07927 6.19768C5.07927 5.99614 5.15933 5.80286 5.30184 5.66035C5.44434 5.51785 5.63763 5.43778 5.83916 5.43779C6.0407 5.43778 6.23398 5.51785 6.37649 5.66035C6.519 5.80286 6.59906 5.99614 6.59906 6.19768C6.59906 6.60075 6.75918 6.98732 7.04419 7.27233C7.32921 7.55735 7.71577 7.71747 8.11885 7.71747C8.52192 7.71747 8.90848 7.55735 9.1935 7.27233C9.47851 6.98732 9.63863 6.60075 9.63863 6.19768Z" fill="#8E4298"/>
</svg>
