<svg width="69" height="51" viewBox="0 0 69 51" fill="none" xmlns="http://www.w3.org/2000/svg">
<path d="M25.0156 41.25C24.6441 43.8572 23.3444 46.2427 21.3552 47.9686C19.3661 49.6944 16.821 50.6446 14.1875 50.6446C11.554 50.6446 9.00893 49.6944 7.01975 47.9686C5.03058 46.2427 3.73088 43.8572 3.35938 41.25H0.125V3.75C0.125 2.9212 0.45424 2.12634 1.04029 1.54029C1.62634 0.954241 2.4212 0.625 3.25 0.625H47C47.8288 0.625 48.6237 0.954241 49.2097 1.54029C49.7958 2.12634 50.125 2.9212 50.125 3.75V10H59.5L68.875 22.675V41.25H62.5156C62.1441 43.8572 60.8444 46.2427 58.8552 47.9686C56.8661 49.6944 54.321 50.6446 51.6875 50.6446C49.054 50.6446 46.5089 49.6944 44.5198 47.9686C42.5306 46.2427 41.2309 43.8572 40.8594 41.25H25.0156ZM43.875 6.875H6.375V32.0313C7.60801 30.7725 9.12688 29.8303 10.8024 29.2847C12.4778 28.7392 14.2603 28.6066 15.9981 28.8981C17.7358 29.1896 19.3774 29.8967 20.7832 30.9591C22.1889 32.0215 23.3171 33.4078 24.0719 35H41.8031C42.3281 33.8969 43.0312 32.8938 43.875 32.0313V6.875ZM50.125 25.625H62.625V24.7344L56.35 16.25H50.125V25.625ZM51.6875 44.375C52.9311 44.375 54.1238 43.881 55.0032 43.0016C55.8825 42.1222 56.3766 40.9296 56.3766 39.6859C56.3766 38.4423 55.8825 37.2496 55.0032 36.3703C54.1238 35.4909 52.9311 34.9969 51.6875 34.9969C50.4439 34.9969 49.2512 35.4909 48.3718 36.3703C47.4925 37.2496 46.9984 38.4423 46.9984 39.6859C46.9984 40.9296 47.4925 42.1222 48.3718 43.0016C49.2512 43.881 50.4439 44.375 51.6875 44.375ZM18.875 39.6875C18.875 39.0719 18.7538 38.4624 18.5182 37.8937C18.2826 37.325 17.9373 36.8082 17.5021 36.3729C17.0668 35.9377 16.55 35.5924 15.9813 35.3568C15.4126 35.1213 14.8031 35 14.1875 35C13.5719 35 12.9624 35.1213 12.3937 35.3568C11.825 35.5924 11.3082 35.9377 10.8729 36.3729C10.4377 36.8082 10.0924 37.325 9.85681 37.8937C9.62125 38.4624 9.5 39.0719 9.5 39.6875C9.5 40.9307 9.99386 42.123 10.8729 43.0021C11.752 43.8811 12.9443 44.375 14.1875 44.375C15.4307 44.375 16.623 43.8811 17.5021 43.0021C18.3811 42.123 18.875 40.9307 18.875 39.6875Z" fill="#7A4B9E"/>
</svg>
